<svg width="88" height="96" viewBox="0 0 88 96" fill="none" xmlns="http://www.w3.org/2000/svg">
<path d="M6.08994 95.9974C6.08994 64.6049 6.08994 33.2124 6.10519 1.81992C6.10519 1.25514 5.75442 0.355668 6.33395 0.170022C7.12444 -0.0809925 8.0827 -0.109755 8.86811 0.470716C9.03586 0.596223 9.16804 0.774025 9.32054 0.923065C12.8841 4.40589 16.407 7.93316 20.024 11.3585C22.7411 13.9287 25.4253 16.533 28.117 19.1295C30.8418 21.7546 33.5717 24.372 36.2965 26.9972C38.8967 29.5021 41.5097 31.9966 44.115 34.5015C46.8423 37.124 49.6052 39.7048 52.2843 42.3797C54.5388 44.6283 56.8747 46.7933 59.2005 48.9636C59.7393 49.4656 59.963 49.9807 59.9605 50.7468C59.9325 59.3885 59.9452 68.0276 59.93 76.6693C59.93 77.017 60.1841 77.5295 59.7241 77.6995C59.3784 77.825 59.1878 77.3543 58.9565 77.1295C55.6547 73.929 52.4037 70.6763 49.0588 67.5256C46.4941 65.1069 43.9523 62.6621 41.4105 60.2174C38.9018 57.8014 36.3524 55.4298 33.8665 52.985C31.3908 50.5481 28.8262 48.2079 26.1548 45.6873V96H6.08994V95.9974Z" fill="#196067"/>
<path d="M63.9843 96C63.9843 70.2426 63.9767 44.4852 64.0122 18.7252C64.0122 17.5329 63.7182 17.2453 62.5779 17.2609C57.771 17.3289 52.959 17.2897 48 17.2897C48.8692 14.2828 49.7231 11.3726 50.5466 8.45464C51.2435 5.99421 51.9327 3.53378 52.5662 1.05504C52.7588 0.299393 53.0806 7.00232e-05 53.8433 7.00232e-05C63.551 0.0288317 73.2586 0.0575934 82.9663 7.00232e-05C84.1319 -0.00777407 83.9951 0.644533 83.9951 1.39234C83.99 32.9282 83.99 64.4615 83.99 95.9974H63.9843V96Z" fill="#196067"/>
</svg>
